<svg width="126" height="69" viewBox="0 0 126 69" fill="none" xmlns="http://www.w3.org/2000/svg">
<path d="M54.6119 37.2307C53.1356 38.99 52.407 40.6444 52.4261 42.1558C52.4501 43.8103 53.126 44.0486 53.7971 44.0486H53.8306C54.5688 44.0391 55.307 43.5909 56.0212 42.7184C56.7977 41.7696 57.3346 40.7207 57.6126 39.5908C58.0056 37.9506 58.4035 36.3105 58.8013 34.6704C57.2579 34.8802 55.8774 35.7241 54.6119 37.2307Z" fill="white"/>
<path d="M104.247 43.3483C104.151 45.0552 104.846 45.3269 105.541 45.3651C105.58 45.3651 105.613 45.3651 105.652 45.3651C106.366 45.3651 107.109 44.9598 107.857 44.1684C108.705 43.2625 109.323 42.2374 109.688 41.1217C110.201 39.4864 110.718 37.8558 111.236 36.2205C109.659 36.3206 108.202 37.0787 106.807 38.5233C105.191 40.1968 104.333 41.8226 104.252 43.3483H104.247Z" fill="white"/>
<path d="M124.671 42.4943V42.4705L124.594 42.275C123.846 40.2582 122.245 38.9661 120.309 38.8183C120.194 38.8088 120.074 38.804 119.954 38.804C119.642 38.804 119.336 38.8374 119.034 38.8994C119.211 38.1556 119.393 37.4166 119.57 36.6728L119.628 36.4297L119.652 36.1818V36.1531L119.69 35.786V35.7193C119.8 34.2508 119.364 32.8777 118.463 31.8478C117.955 31.2662 117.111 30.5748 115.808 30.2363C114.959 29.3495 113.564 28.5819 111.268 28.4389C111.014 28.4246 110.76 28.415 110.506 28.415C108.407 28.415 106.355 28.9538 104.399 30.0218C104.284 28.0527 103.623 26.2409 102.458 24.7152C100.939 22.7366 98.7528 21.559 96.1356 21.3063L96.0445 21.2967H95.9535C95.7569 21.2824 95.5652 21.2824 95.3783 21.2824C92.8186 21.2824 90.5849 22.0596 88.9264 23.5376C88.3943 24.0096 87.9342 24.5245 87.5459 25.0776C86.9132 24.8964 86.2181 24.7915 85.456 24.7677H85.2738C85.2163 24.7629 85.1684 24.7581 85.1157 24.7581C83.0353 24.7581 81.5398 25.8595 80.4565 27.2946C80.1353 26.5031 79.5841 25.7498 78.8028 25.0347C77.6044 23.9429 76.061 23.3564 74.3306 23.3278H74.2443C72.8303 23.3278 70.7643 23.8475 68.9237 26.3124C68.799 26.4698 68.5881 26.7463 68.0273 27.5187C67.4617 28.2958 66.9536 29.0634 66.5174 29.7977C66.4071 29.9836 66.2921 30.1839 66.1723 30.3937C66.0237 30.1934 65.8607 30.0027 65.6833 29.8215C65.1369 29.278 64.2549 28.6534 62.9463 28.4007C62.05 27.5902 60.6311 26.9323 58.3878 26.9323H58.3255C54.6538 26.9513 51.1642 28.663 48.2259 31.8764C45.6806 34.6608 44.2426 37.9649 44.0173 41.5026C43.5907 41.9317 43.3127 42.1653 43.1593 42.2845C42.934 42.4562 42.8237 42.4848 42.771 42.4895C42.7566 42.4752 42.7327 42.4562 42.7039 42.4323C42.4738 42.213 41.8123 41.474 40.7195 39.3762C39.9238 37.8505 39.1904 36.6061 38.5337 35.6764C38.4282 35.5286 38.318 35.3808 38.2029 35.2377C39.5595 34.2413 40.9352 33.0541 42.3636 31.6524C51.8209 22.4172 54.5819 14.3119 55.9192 8.27115C56.1253 7.44155 56.2116 6.84558 56.202 6.27821C56.1781 4.34249 55.3297 2.66423 53.8102 1.55334C51.9455 0.189753 49.1031 0.151611 48.7867 0.151611H48.6381C46.7735 0.184986 45.1485 0.666532 43.8064 1.58195C42.3923 2.54504 41.3666 3.942 40.8297 5.62503C40.6188 6.28298 40.4175 6.98385 40.2401 7.60366C39.0897 11.6372 37.5175 17.144 30.8499 24.8869C30.5527 25.2302 30.2507 25.5496 29.9439 25.8452C30.0446 24.8869 30.1453 23.9238 30.2459 22.9702C31.8325 21.7878 32.7193 19.8283 32.6187 17.473C32.4892 14.4502 30.4329 12.1664 27.1207 11.3702C25.4909 10.9697 23.9331 10.7122 22.5142 10.6074C21.7856 10.5549 21.0139 10.5263 20.2182 10.5263C19.5184 10.5263 18.7898 10.5454 18.0516 10.5883C14.2505 10.8028 10.9766 11.5895 8.32585 12.934C5.50255 14.3644 3.38388 16.2524 2.01777 18.5457C0.632483 20.8772 0.038106 23.4279 0.244221 26.1265C0.435956 28.6296 1.26042 30.9515 2.69363 33.0302C3.91115 34.8563 5.87164 35.9004 8.07659 35.9004C8.24436 35.9004 8.41692 35.8957 8.58948 35.8814C9.49543 35.8194 10.3678 35.5905 11.1827 35.2187C11.1827 35.4094 11.1827 35.6049 11.1971 35.8003C11.3073 37.5644 12.0263 39.0615 13.2774 40.1342C13.5123 40.3345 13.7615 40.5204 14.0252 40.6825C14.0012 40.9495 13.9772 41.2165 13.9533 41.4835C13.728 43.7101 13.2486 44.5444 13.1048 44.7495C13.0953 44.7638 13.0857 44.7781 13.0761 44.7924C12.7981 44.5063 12.2372 43.8531 11.3313 42.4466C10.7129 41.4406 10.0035 40.7016 9.1551 40.1915C8.2875 39.667 7.2713 39.3905 6.21676 39.3905C6.06337 39.3905 5.90998 39.3952 5.7518 39.4095C3.71941 39.5621 1.97463 40.7207 0.953638 42.5992C0.210665 43.9675 -0.100904 45.5075 0.0285171 47.1763C0.119591 48.2967 0.402398 49.3551 0.876942 50.3278L0.886531 50.3468L0.89612 50.3659C2.03215 52.6163 3.84404 54.4042 6.27428 55.6772C8.30188 56.7404 10.5548 57.2792 12.961 57.2792C13.3157 57.2792 13.6753 57.2697 14.0348 57.2458C18.3152 56.9693 21.7233 55.4055 24.1584 52.602C25.6731 50.8618 26.8043 48.5398 27.5377 45.6696C27.5904 45.7698 27.6431 45.8699 27.6959 45.9748C29.2825 49.1167 31.0368 51.5245 32.8967 53.1074C33.5821 53.6891 34.3203 54.1706 35.1016 54.5663C28.9326 56.5688 25.4813 58.4282 24.8486 58.7858C22.5765 59.9682 21.3638 62.333 21.8959 64.5644C22.3944 66.6479 24.2494 68.0496 26.5119 68.0496C27.1111 68.0496 27.7342 67.9495 28.3669 67.7588C45.0814 63.32 58.7281 61.0696 68.9189 61.0696C72.1208 61.0696 74.2779 61.2889 75.8501 61.4462C76.3342 61.4939 76.7512 61.5368 77.1107 61.5654C82.2444 61.9659 96.1979 65.9279 98.2543 66.6622C99.1746 66.9912 100.129 67.158 101.102 67.158C103.791 67.158 105.67 65.9041 106.183 65.5179C107.227 64.7312 108.215 63.258 108.713 62.4522C109.5 61.184 110.084 58.8764 109.111 56.5974C108.555 55.3006 107.597 54.204 106.25 53.3076C107.347 53.1455 108.387 52.8309 109.346 52.3541C110.31 53.0263 111.676 53.6271 113.56 53.7558C113.751 53.7701 113.948 53.7749 114.14 53.7749C115.942 53.7749 117.797 53.2075 119.652 52.0966C121.358 51.0715 122.811 49.8701 123.966 48.5255L124.139 48.3253L124.278 48.1012L124.345 47.9915L124.364 47.9582L124.498 47.7389L124.599 47.5005C124.858 46.8997 125.016 46.2036 125.078 45.374C125.15 44.4634 125.016 43.5194 124.666 42.5038L124.671 42.4943ZM105.78 60.6739C105.78 60.6739 104.788 62.2854 104.107 62.7955C103.613 63.1674 102.487 63.7443 101.092 63.7443C100.56 63.7443 99.9895 63.6585 99.4047 63.4487C97.2621 62.6859 82.9778 58.5951 77.3696 58.1612C75.8357 58.042 73.2425 57.6558 68.9093 57.6558C61.422 57.6558 48.7436 58.8097 27.3987 64.4833C27.0631 64.593 26.7659 64.6407 26.5071 64.6407C24.8438 64.6407 24.6808 62.6811 26.4783 61.7847C26.4783 61.7847 42.6991 52.4256 73.7985 52.4256C81.6021 52.4256 90.3404 53.0168 99.9943 54.49C108.483 56.3209 105.785 60.6739 105.785 60.6739H105.78ZM121.665 45.0975C121.627 45.5504 121.56 45.8985 121.449 46.156C121.421 46.2036 121.387 46.2561 121.358 46.3038C120.438 47.3765 119.264 48.3396 117.874 49.174C116.56 49.9654 115.304 50.3611 114.135 50.3611C114.02 50.3611 113.905 50.3611 113.79 50.3516C112.491 50.261 111.474 49.8414 110.775 49.0977C110.386 48.6876 110.094 48.2061 109.897 47.6578C109.337 48.2967 108.694 48.8211 107.97 49.2216C106.969 49.7556 105.823 50.0226 104.553 50.0226C104.38 50.0226 104.208 50.0179 104.03 50.0083C102.472 49.9225 101.236 49.2598 100.339 48.0345C99.4718 46.8521 99.0692 45.3597 99.1554 43.5957C99.2417 41.822 99.6971 40.1438 100.522 38.5942C100.373 38.5942 100.224 38.599 100.081 38.599C99.8313 38.599 99.5916 38.5942 99.352 38.5799C99.1507 38.5561 98.9493 38.537 98.748 38.5132C96.9936 41.8888 94.7983 44.573 92.2194 46.504C90.1343 48.0535 88.0204 48.8402 85.9018 48.8402C85.8155 48.8402 85.7244 48.8402 85.6381 48.8402C82.9634 48.7592 81.2091 47.3479 80.3942 44.6207C78.3714 47.162 76.1137 48.4493 73.6355 48.4493C73.602 48.4493 73.5636 48.4493 73.5301 48.4493C71.4066 48.4207 69.6858 47.6673 68.4108 46.2132C68.2478 46.0272 68.0896 45.827 67.9458 45.6172C67.4233 46.1083 66.8529 46.566 66.2537 46.9855C64.8924 47.9391 63.5647 48.4254 62.304 48.4254C61.0146 48.4254 59.984 48.0774 59.2458 47.3908C58.8384 47.0142 58.5172 46.5612 58.2872 46.0368C57.7791 46.6995 57.1799 47.2573 56.4992 47.7007C55.4159 48.373 54.1313 48.721 52.6693 48.7401C52.6454 48.7401 52.6166 48.7401 52.5926 48.7401C51.5621 48.7401 50.6465 48.4683 49.8652 47.9248C48.7771 49.0977 47.6746 50.0608 46.577 50.795C45.0335 51.8248 43.1832 52.3779 41.0646 52.4351C40.9495 52.4351 40.8393 52.4399 40.729 52.4399C38.5097 52.4399 36.6355 51.801 35.14 50.5232C33.6205 49.2264 32.1489 47.1763 30.7588 44.4252C29.7762 42.5229 28.9613 41.0878 28.3334 40.1676C27.739 39.2951 27.1686 38.6801 26.6365 38.3511C26.2483 38.1079 25.7785 37.9458 25.2273 37.8648C25.1314 38.7897 25.0355 39.7147 24.9445 40.6396C24.5083 45.0403 23.3722 48.3158 21.5747 50.3802C19.7532 52.4733 17.1504 53.6366 13.819 53.8512C13.5314 53.8702 13.2486 53.8798 12.9706 53.8798C11.1252 53.8798 9.41873 53.4745 7.88006 52.6687C6.09692 51.7343 4.77875 50.4517 3.96867 48.845C3.68107 48.2585 3.50851 47.6101 3.45578 46.914C3.37429 45.9128 3.55164 45.0117 3.97825 44.225C4.56784 43.1427 5.41147 42.8614 6.01544 42.8137C6.08734 42.809 6.15924 42.8042 6.22635 42.8042C6.65775 42.8042 7.05081 42.9091 7.39114 43.1093C7.76023 43.3334 8.10535 43.7053 8.43609 44.2536C9.46187 45.8508 10.3439 46.9665 11.0533 47.5625C11.6333 48.0488 12.3043 48.2872 13.0952 48.2872C13.1863 48.2872 13.2774 48.2872 13.3685 48.2776C14.4038 48.2109 15.2427 47.6912 15.9377 46.6899C16.6759 45.6315 17.16 43.9914 17.3805 41.8077C17.4908 40.5967 17.601 39.3857 17.7113 38.1747H17.649C17.5627 38.1842 17.4812 38.1842 17.3997 38.1842C16.6471 38.1842 16.0192 37.9744 15.5351 37.5501C14.9934 37.0876 14.6914 36.4249 14.6387 35.5858C14.5812 34.6704 14.7921 33.9075 15.2666 33.3068C15.7652 32.6822 16.4171 32.3437 17.208 32.296C17.5483 32.2769 17.8886 32.2579 18.229 32.2388C18.3392 31.023 18.4207 30.1553 18.4734 29.6499C18.7418 26.4602 19.0199 23.2754 19.3027 20.0857C19.1013 20.0809 18.9 20.0762 18.7035 20.0762C18.344 20.0762 17.9989 20.0857 17.6633 20.1048C15.1276 20.2526 13.2151 20.7866 11.9976 21.6829C10.8328 22.5364 10.3151 23.6615 10.4158 25.1157C10.4637 25.7975 10.5739 26.3363 10.7465 26.7225C10.9382 27.1516 11.1923 27.6379 11.4991 28.1719C11.6812 28.4675 11.7867 28.8203 11.8106 29.2017C11.8681 30.0361 11.5182 30.7894 10.7848 31.4426C10.085 32.0672 9.27014 32.4152 8.36419 32.4772C8.27312 32.482 8.18204 32.4867 8.09097 32.4867C7.01725 32.4867 6.14006 32.0195 5.55048 31.1184C4.45759 29.5402 3.82008 27.7714 3.67628 25.8595C3.52289 23.8761 3.95908 21.9928 4.98487 20.2717C6.00585 18.5505 7.65957 17.0963 9.89807 15.9663C12.1126 14.8459 14.9311 14.1737 18.2625 13.9877C18.9432 13.9496 19.5999 13.9305 20.2374 13.9305C20.9516 13.9305 21.6322 13.9543 22.2746 14.002C23.5017 14.0926 24.8678 14.3215 26.3345 14.679C28.6354 15.2321 29.1674 16.5814 29.2154 17.6112C29.3112 19.8473 28.0745 20.5243 27.0583 20.7103C26.6749 24.3576 26.2962 28.005 25.9271 31.6524C28.899 31.0516 31.3676 29.5641 33.4815 27.0991C40.5469 18.889 42.3109 12.9197 43.5619 8.53814C43.7537 7.87065 43.9358 7.2413 44.1275 6.64533C44.4343 5.68224 44.9856 4.92416 45.7717 4.3854C46.5482 3.85618 47.5452 3.57488 48.7244 3.55581C48.7531 3.55581 48.7819 3.55581 48.8107 3.55581C49.7789 3.55581 51.169 3.83234 51.8017 4.29481C52.4536 4.77159 52.7892 5.45339 52.7988 6.31636C52.7988 6.57858 52.7412 6.95047 52.6022 7.48923C51.2697 13.5062 48.6477 20.7532 39.9765 29.2208C37.2491 31.8955 34.7373 33.7168 32.1729 34.8515C32.7049 35.0518 33.1891 35.2902 33.6109 35.5667C34.4401 36.115 35.1591 36.8111 35.7487 37.6407C36.3095 38.4321 36.9662 39.543 37.6948 40.94C38.6727 42.8137 39.5643 44.1487 40.36 44.8973C41.0694 45.5695 41.8507 45.8937 42.7518 45.8937C42.7854 45.8937 42.819 45.8937 42.8525 45.8937C43.7057 45.8699 44.4966 45.5743 45.2684 44.9831C45.8675 44.5254 46.5961 43.815 47.4446 42.8662C47.4446 42.8185 47.4445 42.7756 47.4398 42.7279C47.3774 39.5621 48.4895 36.6728 50.7855 34.165C53.0959 31.6381 55.6556 30.3508 58.3686 30.3364H58.4118C60.3771 30.3364 60.9714 31.023 61.0865 31.6953C61.2974 31.6953 61.5131 31.6953 61.724 31.6953C63.0278 31.6953 63.7708 32.3818 63.7708 33.5785L63.7612 33.9743C63.2675 36.8731 62.7833 39.7767 62.304 42.6755C62.28 42.7756 62.2609 42.8948 62.2609 43.1379C62.2609 43.7864 62.4478 43.7864 62.5581 43.7864C63.2962 43.7864 64.5713 43.2714 66.5557 40.8685C66.5509 40.7302 66.5461 40.6063 66.5461 40.4775C66.5605 38.1651 67.1022 35.9577 68.1711 33.9171C68.6696 32.973 69.1106 32.1673 69.4893 31.5332C69.8727 30.8943 70.3185 30.2125 70.8266 29.5164C71.4114 28.7106 71.584 28.4865 71.6559 28.4055C72.466 27.2994 73.3479 26.7368 74.2731 26.7368H74.3066C75.1934 26.7511 75.9363 27.0228 76.5116 27.5473C77.1155 28.1004 77.3935 28.5581 77.3839 28.9919C77.3792 29.3447 77.3121 29.6308 77.1826 29.8692C77.1587 29.9073 77.1299 29.9407 77.1059 29.9789C76.6602 30.4699 76.3246 30.8657 76.1089 31.1613C75.874 31.4759 75.5912 31.8526 75.2509 32.2865C73.3336 34.904 72.3509 37.5358 72.3174 40.0913C72.2742 43.3144 73.5636 43.3334 74.0526 43.343H74.0765C75.2892 43.343 77.312 42.0223 80.2792 35.7956C80.6147 35.1042 80.9502 34.4129 81.2905 33.7216C82.4505 29.936 83.6824 28.1671 85.1396 28.1671C85.1588 28.1671 85.1732 28.1671 85.1924 28.1671H85.3793C87.7712 28.2434 88.0875 29.4306 88.0636 30.1314C88.0492 30.5939 87.8527 31.5236 86.4003 34.2413C85.1061 36.6824 84.4254 38.8755 84.3727 40.7588C84.2864 43.7482 85.6621 43.7864 86.1798 43.8054C86.2133 43.8054 86.2469 43.8054 86.2852 43.8054C87.4213 43.8054 88.6292 43.2333 89.8851 42.1033C91.2464 40.8828 92.4064 39.338 93.3411 37.512L93.389 37.4309C93.4849 37.3022 93.5951 37.1353 93.7245 36.9255C92.4495 36.1484 91.4285 35.1567 90.6856 33.9743C89.8371 32.6298 89.4297 31.2233 89.4824 29.7929C89.5351 28.3197 90.1247 27.0657 91.2416 26.074C92.277 25.1539 93.6766 24.6866 95.407 24.6866C95.546 24.6866 95.6898 24.6866 95.8384 24.6962C97.5209 24.8583 98.8295 25.5591 99.7642 26.7749C100.675 27.9669 101.097 29.3972 101.01 31.023C100.948 32.234 100.79 33.3259 100.531 34.2889C101.888 34.2222 103.446 33.9695 105.171 33.5499C106.902 32.3961 108.709 31.8145 110.535 31.8145C110.717 31.8145 110.899 31.8192 111.081 31.8335C113.104 31.9623 113.66 32.706 113.727 33.3926C113.943 33.4069 114.159 33.4212 114.379 33.4355C115.693 33.5261 116.397 34.2699 116.311 35.4714L116.273 35.8671C115.573 38.7611 114.878 41.6552 114.187 44.554C114.159 44.6493 114.13 44.7685 114.111 45.0212C114.068 45.6792 114.259 45.6935 114.374 45.703C114.413 45.703 114.451 45.703 114.489 45.703C115.285 45.703 116.651 45.169 118.837 42.7994C119.201 42.4085 119.585 42.2082 119.987 42.2082C120.016 42.2082 120.05 42.2082 120.079 42.2082C120.486 42.2416 121.052 42.48 121.406 43.4431C121.641 44.0772 121.732 44.6112 121.694 45.088L121.665 45.0975Z" fill="white"/>
<path d="M95.4205 29.1448C95.4205 29.1448 95.3966 29.1448 95.3822 29.1448C95.2144 29.1448 94.9939 29.1972 94.7447 29.5024C94.4954 29.8123 94.366 30.1746 94.3468 30.6085C94.3037 31.6145 94.7159 32.4441 95.6027 33.1211C95.9574 32.1628 96.1491 31.3666 96.1779 30.7468C96.245 29.1829 95.6698 29.1591 95.4205 29.1448Z" fill="white"/>
</svg>
