<svg width="26" height="29" viewBox="0 0 26 29" fill="none" xmlns="http://www.w3.org/2000/svg">
<g clip-path="url(#clip0_313_779)">
<path d="M11.9439 0.0146276C11.3313 -0.0519693 10.8007 0.0929768 10.4397 0.619876C10.1403 1.05667 10.109 1.52873 10.3549 2.00764C10.6202 2.52376 11.0543 2.75391 11.623 2.75587C13.3037 2.76175 14.923 3.0918 16.43 3.82828C20.1944 5.66655 22.5462 8.63795 23.1325 12.8257C23.8797 18.1593 21.1952 22.969 16.3403 25.2304C14.8488 25.9247 13.2627 26.2352 11.6191 26.2607C10.6085 26.2763 9.95395 27.191 10.2856 28.1068C10.4924 28.6787 10.9879 29.0107 11.6552 28.9999C15.2536 28.9422 18.4337 27.7522 21.1289 25.3577C23.7529 23.0229 25.3546 20.0858 25.8403 16.5992C26.41 12.5143 25.4619 8.78779 22.8886 5.54315C20.0939 2.02037 16.3959 0.246737 11.9439 0.0146276Z" fill="#F46147"/>
<path d="M9.48415 16.663C10.7123 16.663 11.8799 16.6621 13.0475 16.663C14.1527 16.665 15.2579 16.6768 16.3631 16.6689C16.686 16.667 17.0147 16.6415 17.3298 16.5759C18.5667 16.3212 19.1159 15.622 19.0447 14.4291C18.9783 13.3224 18.2253 12.5213 17.0674 12.4586C15.6081 12.3803 14.1439 12.3754 12.6817 12.3548C11.6614 12.3401 10.6401 12.3519 9.55243 12.3519C9.55243 12.0963 9.55536 11.8926 9.55243 11.6879C9.5339 10.5969 9.56804 9.49997 9.47732 8.41483C9.40123 7.49716 8.84814 7.24155 8.09899 7.77628C6.60458 8.84379 5.15016 9.96908 3.68794 11.0816C2.71736 11.8201 1.7614 12.5791 0.79862 13.3283C0.721558 13.388 0.645473 13.4488 0.571337 13.5134C-0.193426 14.1755 -0.194403 14.7239 0.584993 15.3585C1.50583 16.1087 2.43155 16.853 3.36311 17.5905C4.82924 18.752 6.30219 19.9057 7.77221 21.0624C7.84927 21.1231 7.92438 21.1858 8.00534 21.2396C8.73011 21.7234 9.30271 21.5031 9.37977 20.6393C9.47049 19.6178 9.45683 18.5875 9.48415 17.5611C9.49195 17.2859 9.48512 17.0097 9.48512 16.663H9.48415Z" fill="#F46147"/>
</g>
<defs>
<clipPath id="clip0_313_779">
<rect width="26" height="29" fill="white" transform="matrix(-1 0 0 1 26 0)"/>
</clipPath>
</defs>
</svg>
